<svg width="16" height="16" viewBox="0 0 16 16" fill="none" xmlns="http://www.w3.org/2000/svg">
<path d="M7.33331 1.33334H5.99998C2.66665 1.33334 1.33331 2.66668 1.33331 6.00001V10C1.33331 13.3333 2.66665 14.6667 5.99998 14.6667H9.99998C13.3333 14.6667 14.6666 13.3333 14.6666 10V8.66668" stroke="#040404" stroke-linecap="round" stroke-linejoin="round"/>
<path d="M10.6933 2.01332L5.43998 7.26665C5.23998 7.46665 5.03998 7.85999 4.99998 8.14665L4.71331 10.1533C4.60665 10.88 5.11998 11.3867 5.84665 11.2867L7.85331 11C8.13331 10.96 8.52665 10.76 8.73331 10.56L13.9866 5.30665C14.8933 4.39999 15.32 3.34665 13.9866 2.01332C12.6533 0.679985 11.6 1.10665 10.6933 2.01332Z" stroke="#040404" stroke-miterlimit="10" stroke-linecap="round" stroke-linejoin="round"/>
<path d="M9.94 2.76666C10.3867 4.36 11.6333 5.60666 13.2333 6.06" stroke="#040404" stroke-miterlimit="10" stroke-linecap="round" stroke-linejoin="round"/>
</svg>
